<svg width="406" height="54" viewBox="0 0 406 54" fill="none" xmlns="http://www.w3.org/2000/svg">
<path d="M12.9951 40.35C10.5618 40.35 8.36178 39.9333 6.39512 39.1C4.46178 38.2667 2.92845 37.0667 1.79512 35.5C0.661784 33.9333 0.0784506 32.0833 0.0451173 29.95H7.54512C7.64512 31.3833 8.14512 32.5167 9.04512 33.35C9.97845 34.1833 11.2451 34.6 12.8451 34.6C14.4785 34.6 15.7618 34.2167 16.6951 33.45C17.6285 32.65 18.0951 31.6167 18.0951 30.35C18.0951 29.3167 17.7785 28.4667 17.1451 27.8C16.5118 27.1333 15.7118 26.6167 14.7451 26.25C13.8118 25.85 12.5118 25.4167 10.8451 24.95C8.57845 24.2833 6.72845 23.6333 5.29512 23C3.89512 22.3333 2.67845 21.35 1.64512 20.05C0.645117 18.7167 0.145117 16.95 0.145117 14.75C0.145117 12.6833 0.661784 10.8833 1.69512 9.35C2.72845 7.81666 4.17845 6.65 6.04512 5.85C7.91178 5.01667 10.0451 4.6 12.4451 4.6C16.0451 4.6 18.9618 5.48333 21.1951 7.25C23.4618 8.98333 24.7118 11.4167 24.9451 14.55H17.2451C17.1785 13.35 16.6618 12.3667 15.6951 11.6C14.7618 10.8 13.5118 10.4 11.9451 10.4C10.5785 10.4 9.47845 10.75 8.64512 11.45C7.84512 12.15 7.44512 13.1667 7.44512 14.5C7.44512 15.4333 7.74512 16.2167 8.34512 16.85C8.97845 17.45 9.74512 17.95 10.6451 18.35C11.5785 18.7167 12.8785 19.15 14.5451 19.65C16.8118 20.3167 18.6618 20.9833 20.0951 21.65C21.5285 22.3167 22.7618 23.3167 23.7951 24.65C24.8285 25.9833 25.3451 27.7333 25.3451 29.9C25.3451 31.7667 24.8618 33.5 23.8951 35.1C22.9285 36.7 21.5118 37.9833 19.6451 38.95C17.7785 39.8833 15.5618 40.35 12.9951 40.35ZM57.1639 25.55C57.1639 26.55 57.0972 27.45 56.9639 28.25H36.7139C36.8805 30.25 37.5805 31.8167 38.8139 32.95C40.0472 34.0833 41.5639 34.65 43.3639 34.65C45.9639 34.65 47.8139 33.5333 48.9139 31.3H56.4639C55.6639 33.9667 54.1305 36.1667 51.8639 37.9C49.5972 39.6 46.8139 40.45 43.5139 40.45C40.8472 40.45 38.4472 39.8667 36.3139 38.7C34.2139 37.5 32.5639 35.8167 31.3639 33.65C30.1972 31.4833 29.6139 28.9833 29.6139 26.15C29.6139 23.2833 30.1972 20.7667 31.3639 18.6C32.5305 16.4333 34.1639 14.7667 36.2639 13.6C38.3639 12.4333 40.7805 11.85 43.5139 11.85C46.1472 11.85 48.4972 12.4167 50.5639 13.55C52.6639 14.6833 54.2805 16.3 55.4139 18.4C56.5805 20.4667 57.1639 22.85 57.1639 25.55ZM49.9139 23.55C49.8805 21.75 49.2305 20.3167 47.9639 19.25C46.6972 18.15 45.1472 17.6 43.3139 17.6C41.5805 17.6 40.1139 18.1333 38.9139 19.2C37.7472 20.2333 37.0305 21.6833 36.7639 23.55H49.9139ZM65.8232 9C64.5566 9 63.5066 8.61667 62.6732 7.85C61.8732 7.05 61.4732 6.06666 61.4732 4.9C61.4732 3.73333 61.8732 2.76666 62.6732 2C63.5066 1.2 64.5566 0.799998 65.8232 0.799998C67.0566 0.799998 68.0732 1.2 68.8732 2C69.6732 2.76666 70.0732 3.73333 70.0732 4.9C70.0732 6.06666 69.6732 7.05 68.8732 7.85C68.0732 8.61667 67.0566 9 65.8232 9ZM69.2732 44.55C69.2732 47.6167 68.5066 49.8167 66.9732 51.15C65.4732 52.5167 63.3066 53.2 60.4732 53.2H57.3732V47.25H59.3732C60.4399 47.25 61.1899 47.0333 61.6232 46.6C62.0566 46.2 62.2732 45.5333 62.2732 44.6V12.3H69.2732V44.55ZM74.3893 26.05C74.3893 23.25 74.9393 20.7667 76.0393 18.6C77.1726 16.4333 78.6893 14.7667 80.5893 13.6C82.5226 12.4333 84.6726 11.85 87.0393 11.85C89.1059 11.85 90.9059 12.2667 92.4393 13.1C94.0059 13.9333 95.2559 14.9833 96.1893 16.25V12.3H103.239V40H96.1893V35.95C95.2893 37.25 94.0393 38.3333 92.4393 39.2C90.8726 40.0333 89.0559 40.45 86.9893 40.45C84.6559 40.45 82.5226 39.85 80.5893 38.65C78.6893 37.45 77.1726 35.7667 76.0393 33.6C74.9393 31.4 74.3893 28.8833 74.3893 26.05ZM96.1893 26.15C96.1893 24.45 95.8559 23 95.1893 21.8C94.5226 20.5667 93.6226 19.6333 92.4893 19C91.3559 18.3333 90.1393 18 88.8393 18C87.5393 18 86.3393 18.3167 85.2393 18.95C84.1393 19.5833 83.2393 20.5167 82.5393 21.75C81.8726 22.95 81.5393 24.3833 81.5393 26.05C81.5393 27.7167 81.8726 29.1833 82.5393 30.45C83.2393 31.6833 84.1393 32.6333 85.2393 33.3C86.3726 33.9667 87.5726 34.3 88.8393 34.3C90.1393 34.3 91.3559 33.9833 92.4893 33.35C93.6226 32.6833 94.5226 31.75 95.1893 30.55C95.8559 29.3167 96.1893 27.85 96.1893 26.15ZM128.99 16.35C129.89 15.0167 131.123 13.9333 132.69 13.1C134.29 12.2667 136.107 11.85 138.14 11.85C140.507 11.85 142.64 12.4333 144.54 13.6C146.473 14.7667 147.99 16.4333 149.09 18.6C150.223 20.7333 150.79 23.2167 150.79 26.05C150.79 28.8833 150.223 31.4 149.09 33.6C147.99 35.7667 146.473 37.45 144.54 38.65C142.64 39.85 140.507 40.45 138.14 40.45C136.073 40.45 134.257 40.05 132.69 39.25C131.157 38.4167 129.923 37.35 128.99 36.05V40H121.99V3H128.99V16.35ZM143.64 26.05C143.64 24.3833 143.29 22.95 142.59 21.75C141.923 20.5167 141.023 19.5833 139.89 18.95C138.79 18.3167 137.59 18 136.29 18C135.023 18 133.823 18.3333 132.69 19C131.59 19.6333 130.69 20.5667 129.99 21.8C129.323 23.0333 128.99 24.4833 128.99 26.15C128.99 27.8167 129.323 29.2667 129.99 30.5C130.69 31.7333 131.59 32.6833 132.69 33.35C133.823 33.9833 135.023 34.3 136.29 34.3C137.59 34.3 138.79 33.9667 139.89 33.3C141.023 32.6333 141.923 31.6833 142.59 30.45C143.29 29.2167 143.64 27.75 143.64 26.05ZM181.627 25.55C181.627 26.55 181.56 27.45 181.427 28.25H161.177C161.343 30.25 162.043 31.8167 163.277 32.95C164.51 34.0833 166.027 34.65 167.827 34.65C170.427 34.65 172.277 33.5333 173.377 31.3H180.927C180.127 33.9667 178.593 36.1667 176.327 37.9C174.06 39.6 171.277 40.45 167.977 40.45C165.31 40.45 162.91 39.8667 160.777 38.7C158.677 37.5 157.027 35.8167 155.827 33.65C154.66 31.4833 154.077 28.9833 154.077 26.15C154.077 23.2833 154.66 20.7667 155.827 18.6C156.993 16.4333 158.627 14.7667 160.727 13.6C162.827 12.4333 165.243 11.85 167.977 11.85C170.61 11.85 172.96 12.4167 175.027 13.55C177.127 14.6833 178.743 16.3 179.877 18.4C181.043 20.4667 181.627 22.85 181.627 25.55ZM174.377 23.55C174.343 21.75 173.693 20.3167 172.427 19.25C171.16 18.15 169.61 17.6 167.777 17.6C166.043 17.6 164.577 18.1333 163.377 19.2C162.21 20.2333 161.493 21.6833 161.227 23.55H174.377ZM221.136 11.9C224.536 11.9 227.269 12.95 229.336 15.05C231.436 17.1167 232.486 20.0167 232.486 23.75V40H225.486V24.7C225.486 22.5333 224.936 20.8833 223.836 19.75C222.736 18.5833 221.236 18 219.336 18C217.436 18 215.919 18.5833 214.786 19.75C213.686 20.8833 213.136 22.5333 213.136 24.7V40H206.136V24.7C206.136 22.5333 205.586 20.8833 204.486 19.75C203.386 18.5833 201.886 18 199.986 18C198.053 18 196.519 18.5833 195.386 19.75C194.286 20.8833 193.736 22.5333 193.736 24.7V40H186.736V12.3H193.736V15.65C194.636 14.4833 195.786 13.5667 197.186 12.9C198.619 12.2333 200.186 11.9 201.886 11.9C204.053 11.9 205.986 12.3667 207.686 13.3C209.386 14.2 210.703 15.5 211.636 17.2C212.536 15.6 213.836 14.3167 215.536 13.35C217.269 12.3833 219.136 11.9 221.136 11.9ZM260.429 19.2V25.1H239.229V19.2H260.429ZM279.829 33.55L286.829 12.3H294.279L284.029 40H275.529L265.329 12.3H272.829L279.829 33.55ZM301.761 9C300.527 9 299.494 8.61667 298.661 7.85C297.861 7.05 297.461 6.06666 297.461 4.9C297.461 3.73333 297.861 2.76666 298.661 2C299.494 1.2 300.527 0.799998 301.761 0.799998C302.994 0.799998 304.011 1.2 304.811 2C305.644 2.76666 306.061 3.73333 306.061 4.9C306.061 6.06666 305.644 7.05 304.811 7.85C304.011 8.61667 302.994 9 301.761 9ZM305.211 12.3V40H298.211V12.3H305.211ZM327.477 11.9C330.777 11.9 333.443 12.95 335.477 15.05C337.51 17.1167 338.527 20.0167 338.527 23.75V40H331.527V24.7C331.527 22.5 330.977 20.8167 329.877 19.65C328.777 18.45 327.277 17.85 325.377 17.85C323.443 17.85 321.91 18.45 320.777 19.65C319.677 20.8167 319.127 22.5 319.127 24.7V40H312.127V12.3H319.127V15.75C320.06 14.55 321.243 13.6167 322.677 12.95C324.143 12.25 325.743 11.9 327.477 11.9ZM343.383 26.05C343.383 23.25 343.933 20.7667 345.033 18.6C346.167 16.4333 347.7 14.7667 349.633 13.6C351.567 12.4333 353.717 11.85 356.083 11.85C357.883 11.85 359.6 12.25 361.233 13.05C362.867 13.8167 364.167 14.85 365.133 16.15V3H372.233V40H365.133V35.9C364.267 37.2667 363.05 38.3667 361.483 39.2C359.917 40.0333 358.1 40.45 356.033 40.45C353.7 40.45 351.567 39.85 349.633 38.65C347.7 37.45 346.167 35.7667 345.033 33.6C343.933 31.4 343.383 28.8833 343.383 26.05ZM365.183 26.15C365.183 24.45 364.85 23 364.183 21.8C363.517 20.5667 362.617 19.6333 361.483 19C360.35 18.3333 359.133 18 357.833 18C356.533 18 355.333 18.3167 354.233 18.95C353.133 19.5833 352.233 20.5167 351.533 21.75C350.867 22.95 350.533 24.3833 350.533 26.05C350.533 27.7167 350.867 29.1833 351.533 30.45C352.233 31.6833 353.133 32.6333 354.233 33.3C355.367 33.9667 356.567 34.3 357.833 34.3C359.133 34.3 360.35 33.9833 361.483 33.35C362.617 32.6833 363.517 31.75 364.183 30.55C364.85 29.3167 365.183 27.85 365.183 26.15ZM391.37 40.45C388.703 40.45 386.303 39.8667 384.17 38.7C382.037 37.5 380.353 35.8167 379.12 33.65C377.92 31.4833 377.32 28.9833 377.32 26.15C377.32 23.3167 377.937 20.8167 379.17 18.65C380.437 16.4833 382.153 14.8167 384.32 13.65C386.487 12.45 388.903 11.85 391.57 11.85C394.237 11.85 396.653 12.45 398.82 13.65C400.987 14.8167 402.687 16.4833 403.92 18.65C405.187 20.8167 405.82 23.3167 405.82 26.15C405.82 28.9833 405.17 31.4833 403.87 33.65C402.603 35.8167 400.87 37.5 398.67 38.7C396.503 39.8667 394.07 40.45 391.37 40.45ZM391.37 34.35C392.637 34.35 393.82 34.05 394.92 33.45C396.053 32.8167 396.953 31.8833 397.62 30.65C398.287 29.4167 398.62 27.9167 398.62 26.15C398.62 23.5167 397.92 21.5 396.52 20.1C395.153 18.6667 393.47 17.95 391.47 17.95C389.47 17.95 387.787 18.6667 386.42 20.1C385.087 21.5 384.42 23.5167 384.42 26.15C384.42 28.7833 385.07 30.8167 386.37 32.25C387.703 33.65 389.37 34.35 391.37 34.35Z" fill="white"/>
</svg>
